<svg xmlns="http://www.w3.org/2000/svg" version="1.1" xmlns:xlink="http://www.w3.org/1999/xlink" xmlns:svgjs="http://svgjs.dev/svgjs" width="1000" height="1000"><g clip-path="url(#SvgjsClipPath1490)"><rect width="1000" height="1000" fill="#a89ecf"></rect><g transform="matrix(19.444444444444443,0,0,19.444444444444443,150,150)"><svg xmlns="http://www.w3.org/2000/svg" version="1.1" xmlns:xlink="http://www.w3.org/1999/xlink" xmlns:svgjs="http://svgjs.dev/svgjs" width="36" height="36"><svg xmlns="http://www.w3.org/2000/svg" viewBox="0 0 24 24" fill="none" stroke="currentColor" stroke-linecap="round" stroke-linejoin="round" width="36" height="36" stroke-width="2.25"> <path d="M16 3.937a9 9 0 1 0 5 8.063"></path> <path d="M12 12m-1 0a1 1 0 1 0 2 0a1 1 0 1 0 -2 0"></path> <path d="M20 4m-1 0a1 1 0 1 0 2 0a1 1 0 1 0 -2 0"></path> <path d="M20 4l-3.5 10l-2.5 2"></path> </svg></svg></g></g><defs><clipPath id="SvgjsClipPath1490"><rect width="1000" height="1000" x="0" y="0" rx="400" ry="400"></rect></clipPath></defs></svg>